<?xml version="1.0" encoding="UTF-8"?>
<svg xmlns="http://www.w3.org/2000/svg" version="1.1" viewBox="0 0 510.2 170.1">
  <defs>
    <style>
      .cls-1 {
        fill: #fff;
      }
    </style>
  </defs>
  <!-- Generator: Adobe Illustrator 28.6.0, SVG Export Plug-In . SVG Version: 1.2.0 Build 709)  -->
  <g>
    <g id="katman_1">
      <g>
        <path class="cls-1" d="M120.8,57.4c5.4,3.8,10.2,2.2,15.3.2,8.7-3.4,14.5-1.7,22.1,5,5.9-3.9,11.2-8.4,17.4-11.2,12.7-5.8,26.1,2.6,27.5,16.5.8,8.5-1.3,16.4-4,24.3-1.5,4.5-2.7,9.2-3.7,13.8-.7,3.2.6,4.2,3.9,3.1,11-3.7,15.9-12.5,18.7-22.6,3-11,5.9-22,13-31.3,4.7-6.3,10-11.8,17.4-15.1,14-6.3,25.4,2.1,26.8,17,1.1,12.5-2.5,23.9-8.1,34.8-.8,1.6-1.7,3.2-2.8,5.2,4.4,2,8.4,1.7,11.6-1.4,7.8-7.5,14.9-15.5,16.5-26.9.6-4.4,2.3-8.6,3.9-12.8,3.5-9.1,7.2-18.1,11.1-27.7,3.7,1.4,7.2,2.8,10.6,4.1-4.5,12.5-9.2,24.5-13,36.8-1.7,5.4-1.7,11.4-1.7,17.2,0,5.6,4.1,8,9.2,5.9,7.5-3,12.3-9.1,15.4-16,4.9-11,9.3-22.2,13.1-33.6,2.9-8.7,4.6-17.7,7-27.3h9.3c3.2,10.7-2.9,32.1-20.8,71.6,5.3.2,9-2.6,11.9-5.9,5.4-6.1,9-12.9,11-21.2,3.8-15.7,10.9-29.9,24.3-39.9,7.3-5.5,15.2-6.3,23.1-1.4,7.5,4.7,10.3,12.9,8.7,22.5-1.5,9.1-4.9,17.2-11.5,23.7-7.8,7.6-17.3,9.1-27.6,6.7-1-.2-1.9-.6-2.8-.9-.9-.3-1.8-.5-2.7-.8-.4,4.7,3,9.2,7.4,10.3,11.1,2.7,32.5-4.5,38-14,5-8.7,8.6-18.2,12.6-27.4,1-2.2,1.8-4.7,2-7.1.2-2.9.2-6.1-.7-8.8-2.4-7,1.2-17.8,7.9-20.4,2.4-.9,5.9-.8,8.4.2,2.9,1.2,2.9,4.3,1.9,7.3-.7,2.1-.7,4.4-1.2,7.7,3.8-1.9,6.8-3.1,9.6-4.8,4.9-3,9.8-3.2,14.4,0,5,3.5,4.8,9,3.7,14.1-2,8.8-4.7,17.5-7.1,26.3-.9,3.2-1.9,6.3-2.5,9.6-.6,3.2.8,5.2,4.1,3.4,3.8-2.2,7.8-4.5,10.5-7.8,3.5-4.3,5.9-9.5,9-14.9,3.2,1.4,6.6,2.9,10.5,4.6-5.7,11.7-11.6,22.7-24,28.1-3.2,1.4-7,2-10.5,2-7.8,0-12.8-5.1-11.7-12.8,1.1-8.1,3.8-16,5.8-23.9,1.2-4.6,2.6-9.2,3.8-13.9.3-1.1,0-2.4,0-3.3-6.2,2.1-12.1,3.8-17.8,6.2-1.4.6-2.2,3.1-2.8,4.8-3.7,9.7-6.6,19.8-11.3,29-3.4,6.6-8.6,12.5-13.9,17.9-6,6.1-14.5,6.6-22.5,8-3.9.7-7.8,1.4-11.8,1.8-8,.7-14.4-2.7-20.2-8.9-7,9.2-15.2,16.6-28,16.8-.6-2.1-1.3-4.6-1.8-6.2-6.6,3.6-12.7,8.2-19.6,10.3-7.4,2.2-15,.8-19.6-8.5-2.6,3-4.5,5.8-7,7.9-8,6.8-17,9-27.2,5.1-1.6-.6-3.9,0-5.6.7-3.4,1.5-6.6,3.8-10,5.3-6.8,3.2-16.8,2.3-21.5-4.7-.7-1-1.3-1.9-2.1-3.2-5.8,8.3-12.5,13.5-21.7,15.2-7.3,1.4-14.4-3.2-14.1-10.6.3-7.5,2.2-14.9,3.5-22.4,1.1-5.8,3-11.6,3.3-17.4.2-2.9-1.6-7.3-3.9-8.7-2.3-1.3-6.9-.7-9.5.8-7.6,4.1-12,11-14.4,19.4-4.8,16.8-10.1,33.5-15.3,50.4-3.9-1.3-7.3-2.4-11.4-3.8,2.1-6.7,4.3-13.3,6.2-19.9,2.9-10.1,7.8-19.8,7.5-30.7-.1-4.2-.3-9.1-4.6-10-3.5-.7-8.3.7-11.4,2.9-8.5,6.1-11.7,15.7-15.1,25.1-4.7,13.2-9.5,26.4-14.2,39.6-.4,1.2-1.2,2.3-2,3.7-3.6-1.3-6.9-2.5-10.7-3.9,9.5-26.2,18.9-52.1,28.7-79ZM264.1,63.2c-.5-3.1-.8-4.8-1.1-6.6-.9-5.9-4.4-8.1-9.8-5.8-2.4,1-4.7,2.5-6.6,4.3-10.3,10.1-15.7,22.7-17.1,36.9-.4,4.4-.2,9.7,4.5,12.4,4.5,2.5,7.2-1.8,10.5-3.6.6-.3,1-.9,1.5-1.3,2.1-1.6,2.8-3.2,2.2-6.3-2.3-11.5,1.9-19.1,12.5-25.1,1.8-1,2.6-3.7,3.4-4.9ZM383.8,61c.7-.1,1.3-.3,1.9-.4,9.6-1.7,16.3-9.7,18.4-20.9,1-5.3-.3-9.1-4.9-11.6-4.6-2.5-8.4.4-10.9,3.5-4.9,6-9.2,12.5-13.3,19-3,4.8-1.8,7.2,3.4,9.1,1.7.6,3.5.9,5.3,1.3Z"/>
        <path class="cls-1" d="M91.3,88.3c3.4,2.3,6.6,4.4,9.8,6.5-7.4,17.8-9.4,37.4-21,53.3-9.4,12.9-21.7,20-37.8,20.2-13.7.1-21.6-5.3-26.3-18.3-1.7-4.6-2.7-9.5-4.2-14.6,4.1-.4,7.6-.8,11.5-1.2.8,3.3,1.5,6.6,2.6,9.8,3.2,10.1,10.9,14.4,21.2,12.3,16.2-3.2,24.6-14.5,30.6-28.4,1.5-3.6,2.6-7.3,4.4-12.4-3,1.3-4.7,2-6.4,2.7-8.1,3.9-16.5,5.5-25.5,3.8-11-2.1-18.9-13.6-17.1-25.5.5-3.8,1.4-7.5,1.5-11.3,0-1.5-1.3-3.9-2.5-4.3-19-7-23.4-24.4-20-41.4.2-.8,2.2-1.9,3.3-1.8,2.8.2,5.5,1.1,8.6,1.8-3,14-1.4,26,14.4,30.8,4.5-7.5,8.5-15.1,13.4-22.1,8.6-12.2,19.3-21.8,34.3-25.5,7.5-1.9,14.9-1.6,20.2,4.5,6.1,7,6.2,15.4,1.6,23.1-10.6,17.9-26.1,29-46.8,32.6-2.6.5-5.3.8-7.9.9-6.3.2-7.9,1-8.1,7.2-.2,4.8.3,10,1.9,14.5,1.9,5.3,6.2,6.9,11.7,5.7,13.9-3.1,24.7-10.8,32.5-23.2ZM52.1,71c1,.7,1.3,1,1.5,1,14.8,1,39.4-14.9,44.7-28.8,2.3-6-.5-9.8-7-9.2-7.2.7-12.9,4.6-18.3,9.1-9.2,7.6-15.8,17.1-21,27.9Z"/>
        <path class="cls-1" d="M295.6,146.1c1.4-6.4,5.9-8.9,11.6-10.8,31.5-10.9,63.7-18.9,96.6-23.9,17.8-2.7,35.9-4,53.9-5.3,10.2-.7,20.4-.1,31.6-.1-6.7,8.2-12.8,15.7-18.9,23.3-4.2,5.1-8.4,10.2-12.6,15.4-1.6,2-3.1,2.7-5.9,1.8-15.9-5-32.3-7.4-48.9-8-30.8-1.2-61.5.1-91.9,5.6-5.2.9-10.4,1.4-15.6,2.1Z"/>
      </g>
    </g>
  </g>
</svg>